<?xml version="1.0" standalone="no"?><svg xmlns="http://www.w3.org/2000/svg" viewBox="0 0 1440 320"><path fill="#020218" fill-opacity="1" d="M0,256L34.3,245.3C68.6,235,137,213,206,202.7C274.3,192,343,192,411,192C480,192,549,192,617,208C685.7,224,754,256,823,240C891.4,224,960,160,1029,154.7C1097.1,149,1166,203,1234,224C1302.9,245,1371,235,1406,229.3L1440,224L1440,320L1405.7,320C1371.4,320,1303,320,1234,320C1165.7,320,1097,320,1029,320C960,320,891,320,823,320C754.3,320,686,320,617,320C548.6,320,480,320,411,320C342.9,320,274,320,206,320C137.1,320,69,320,34,320L0,320Z"></path></svg>